<?xml version="1.0" encoding="utf-8"?>
<!-- Generator: Adobe Illustrator 19.1.1, SVG Export Plug-In . SVG Version: 6.00 Build 0)  -->
<svg version="1.1" id="_x31_0" xmlns="http://www.w3.org/2000/svg" xmlns:xlink="http://www.w3.org/1999/xlink" x="0px" y="0px"
	 viewBox="0 0 512 512" style="enable-background:new 0 0 512 512;" xml:space="preserve">
<style type="text/css">
	.st0{fill:#374149;}
</style>
<g>
	<path class="st0" d="M66.51,416.599c-0.003,15.626,3.844,30.347,10.534,43.378c0.226,0.446,0.422,0.914,0.656,1.356
		c0.807,1.514,1.718,2.96,2.605,4.426c0.738,1.23,1.442,2.482,2.232,3.674c0.606,0.904,1.276,1.756,1.913,2.642
		c1.17,1.635,2.341,3.271,3.611,4.828c0.495,0.6,1.03,1.162,1.538,1.75c1.479,1.724,2.983,3.43,4.588,5.046
		c0.525,0.53,1.09,1.015,1.627,1.534c1.618,1.558,3.257,3.093,4.985,4.533c0.767,0.64,1.575,1.223,2.359,1.837
		c1.533,1.203,3.066,2.394,4.678,3.502c1.206,0.832,2.466,1.583,3.708,2.362c1.225,0.758,2.425,1.539,3.686,2.243
		c1.806,1.017,3.674,1.93,5.553,2.833c0.73,0.346,1.441,0.722,2.183,1.054c2.467,1.11,5.001,2.09,7.572,2.989
		c0.174,0.061,0.34,0.129,0.514,0.19c9.686,3.322,20.033,5.211,30.836,5.214L354.731,512c52.598,0.002,95.387-42.778,95.389-95.376
		l0.022-304.367c-0.002-15.619-3.845-30.328-10.526-43.354c-0.23-0.458-0.429-0.934-0.667-1.388
		c-0.799-1.498-1.699-2.924-2.575-4.374c-0.75-1.25-1.463-2.522-2.27-3.73c-0.586-0.881-1.238-1.709-1.857-2.566
		c-1.188-1.668-2.381-3.328-3.674-4.913c-0.465-0.571-0.978-1.102-1.458-1.662c-1.502-1.756-3.037-3.486-4.664-5.126
		c-0.502-0.51-1.041-0.974-1.555-1.47c-1.641-1.582-3.306-3.141-5.061-4.602c-0.737-0.616-1.518-1.178-2.275-1.772
		c-1.56-1.223-3.124-2.438-4.761-3.562c-1.176-0.815-2.405-1.546-3.621-2.308c-1.251-0.778-2.49-1.576-3.778-2.298
		c-1.775-1-3.608-1.893-5.453-2.782c-0.766-0.367-1.51-0.761-2.287-1.104c-2.444-1.098-4.946-2.065-7.491-2.955
		c-0.197-0.07-0.39-0.15-0.586-0.216c-9.686-3.321-20.025-5.21-30.821-5.209l-98.706-0.008C249.155,7.296,238.46,1.193,226.422,0.15
		c-14.27-1.21-27.857,4.951-36.363,16.497c-0.058,0.076-0.094,0.134-0.152,0.21l-27.99-0.002
		c-52.597-0.006-95.383,42.778-95.389,95.376l-0.001,29.862c-3.574,6.766-5.198,14.51-4.518,22.469
		c0.49,5.555,2.041,10.827,4.514,15.573L66.51,416.599z M106.461,141.886c0.052-0.038,0.1-0.074,0.152-0.112
		c0.395,0.546,0.81,1.115,1.228,1.661c0.414,0.55,0.83,1.096,1.284,1.624c0.322,0.398,0.641,0.797,0.983,1.172
		c0.243,0.302,0.51,0.608,0.793,0.907c0.32,0.359,0.643,0.718,0.982,1.078c0.057,0.057,0.114,0.114,0.17,0.17
		c0.437,0.473,0.89,0.926,1.362,1.4c0.037,0.056,0.113,0.133,0.17,0.19c0.17,0.17,0.358,0.357,0.529,0.511
		c0.623,0.62,1.267,1.209,1.907,1.794c0.417,0.378,0.834,0.736,1.267,1.095c0.717,0.623,1.434,1.227,2.193,1.797
		c0.361,0.302,0.718,0.584,1.096,0.847c0.152,0.114,0.301,0.23,0.453,0.344c0.415,0.319,0.83,0.623,1.266,0.924
		c0.702,0.494,1.4,0.983,2.099,1.438c0.718,0.47,1.437,0.945,2.172,1.381c0.738,0.452,1.474,0.888,2.23,1.302
		c0.662,0.379,1.306,0.738,1.967,1.078c0.207,0.113,0.414,0.21,0.602,0.322c0.588,0.282,1.175,0.585,1.759,0.87
		c1.684,0.814,3.401,1.57,5.158,2.268c8.998,3.59,18.354,5.406,27.327,5.407c2.095-0.001,4.102-0.286,6.138-0.493
		c1.242-0.082,2.422-0.099,3.697-0.199c-1.831,2.61-3.876,5.09-6.204,7.401c-2.288,2.285-4.725,4.346-7.298,6.178
		c-2.246,0.305-4.517,0.51-6.785,0.662c-0.208,0.02-0.395,0.018-0.603,0.038c-0.074,0.002-0.169,0.018-0.247,0.019
		c-0.337,0.019-0.696,0.018-1.037,0.038c-0.114,0.019-0.227,0.019-0.341,0.019c-0.493,0.018-0.982,0.04-1.495,0.058
		c-1.095,0.036-2.19,0.056-3.305,0.056c-0.871-0.003-1.758-0.018-2.629-0.037c-0.547,0-1.094-0.019-1.644-0.058
		c-0.738-0.018-1.472-0.04-2.213-0.097c-0.659-0.035-1.322-0.074-2-0.133c-0.206-0.015-0.398-0.038-0.604-0.056
		c-0.53-0.054-1.06-0.096-1.609-0.15c-0.094,0.001-0.206-0.018-0.301-0.018c-0.265-0.021-0.53-0.058-0.794-0.094
		c-0.608-0.057-1.23-0.134-1.834-0.209c-0.834-0.096-1.682-0.207-2.513-0.342c-0.946-0.13-1.87-0.284-2.818-0.45
		c-0.377-0.06-0.773-0.132-1.154-0.208c-0.094,0.001-0.167-0.022-0.264-0.041c-1.946-0.357-3.874-0.772-5.819-1.247
		c-0.775-0.187-1.532-0.358-2.306-0.585c-0.019,0-0.058-0.022-0.078-0.018c-0.263-0.076-0.526-0.136-0.794-0.212
		c-0.946-0.244-1.89-0.507-2.814-0.794c-0.078-0.018-0.151-0.053-0.228-0.074c-0.963-0.284-1.906-0.587-2.854-0.886
		c-0.321-0.117-0.661-0.23-0.981-0.343c-0.097-0.038-0.209-0.074-0.305-0.112c-0.49-0.17-0.982-0.32-1.475-0.509
		c-0.471-0.173-0.942-0.342-1.436-0.531l-0.015-0.001c-0.437-0.152-0.892-0.32-1.327-0.511c-0.771-0.282-1.546-0.606-2.324-0.926
		c-0.301-0.112-0.606-0.244-0.906-0.376c-0.851-0.362-1.702-0.72-2.552-1.117c-0.697-0.302-1.417-0.624-2.116-0.966
		c-0.812-0.376-1.607-0.771-2.418-1.17c-4.195-2.098-6.842-5.989-7.238-10.658c-0.398-4.614,1.513-8.828,5.235-11.566
		C98.832,147.818,102.655,144.888,106.461,141.886z M250.699,131.389c1.906-2.438,4.594-4.178,7.671-4.895
		c0.776-0.172,1.608-0.362,2.495-0.604c2.647-0.702,5.764-1.738,8.883-3.102c5.323-18.544,6.394-38.413,3.293-58.166
		c-0.117-0.802-0.136-1.604-0.264-2.402l25.625,0.001c8.49-21.47,29.543-35.966,53.354-35.962c4.952-0.002,9.925,0.644,14.762,1.907
		c14.834,3.877,27.307,13.251,35.149,26.404c1.455,2.42,2.742,4.97,3.82,7.58c1.246,2.928,2.248,6.008,2.945,9.108
		c2.099,8.715,2.002,17.956-0.267,26.651l-3.418,13.037l-0.001,0.019c0.035,0.435,0.037,0.85,0.037,1.287l-0.004,45.847
		c3.817,4.973,7.766,8.488,8.127,8.79c3.288,3.003,4.914,7.371,4.386,11.738c-0.645,4.457-3.368,8.238-7.279,10.22
		c-1.305,0.642-3.081,1.456-5.233,2.214l-0.018,225.559c-0.001,27.63-22.398,50.024-50.028,50.023l-192.844-0.015
		c-27.63-0.001-50.025-22.398-50.024-50.028l0.014-208.436c11.869,3.174,24.061,4.82,36.154,4.821
		c12.324,0.001,24.306-1.644,35.702-4.818c-0.246-3.8,0.359-6.37,1.226-8.259c0.246-0.566,0.514-1.057,0.796-1.512
		c2.078-3.324,5.593-5.253,9.638-5.252c0.946-0.002,2.498,0.001,4.895,0.831c2.079,0.679,4.762,1.984,8.183,4.406
		c1.418-0.74,2.796-1.494,4.157-2.29c1.418-8.236,4.028-11.018,5.181-12.244l0.094-0.094c1.209-0.833,2.381-1.703,3.553-2.588
		c1.495-0.718,3.099-1.096,4.764-1.096c1.834-0.002,3.948,0.338,6.349,1.758c1.967-1.721,3.875-3.514,5.726-5.369
		c6.844-6.839,12.739-14.361,17.692-22.411c-2.286-2.269-4.007-4.463-5.178-6.067c-0.246-0.322-0.454-0.626-0.644-0.906
		c-1.984-2.95-2.682-6.559-2.038-10.019c0.001-0.019,0.018-0.038,0.018-0.074c0.909-1.836,1.76-3.706,2.552-5.578
		C250.698,131.405,250.698,131.405,250.699,131.389z M236.229,38.269c0.302,0.643,0.583,1.306,0.866,1.949
		c0.114,0.207,0.212,0.434,0.286,0.643c0.282,0.639,0.546,1.262,0.813,1.909c0.054,0.111,0.113,0.242,0.152,0.357
		c0.206,0.453,0.394,0.925,0.585,1.381c0.056,0.19,0.132,0.36,0.207,0.546c0.358,0.927,0.716,1.874,1.04,2.8
		c0.018,0.036,0.018,0.055,0.035,0.091c0.21,0.59,0.418,1.156,0.608,1.741c0.224,0.642,0.432,1.286,0.659,1.946
		c0.039,0.095,0.055,0.209,0.094,0.304c-0.001,0.016,0.018,0.036,0.018,0.055c0.208,0.641,0.417,1.266,0.606,1.91
		c0.094,0.339,0.19,0.698,0.284,1.038c0.134,0.415,0.245,0.834,0.359,1.248c0.19,0.624,0.34,1.231,0.491,1.834
		c0.132,0.47,0.264,0.943,0.361,1.416c0.207,0.777,0.375,1.553,0.544,2.325c0.042,0.15,0.075,0.303,0.117,0.454
		c0.034,0.15,0.057,0.283,0.094,0.437c0.15,0.717,0.302,1.434,0.451,2.174c0.057,0.283,0.114,0.566,0.15,0.85
		c0.117,0.582,0.23,1.153,0.322,1.738c0.019,0.017,0.018,0.056,0.017,0.075c0.153,0.889,0.286,1.757,0.416,2.645
		c0.133,0.888,0.266,1.757,0.361,2.628c-0.002,0.058,0.021,0.094,0.018,0.153l0.002,0.074c0.054,0.451,0.113,0.906,0.151,1.362
		c0.018,0.074,0.018,0.169,0.038,0.243c0.054,0.456,0.11,0.887,0.13,1.326v0.114c0.021,0.075,0.019,0.13,0.02,0.208
		c0.074,0.678,0.133,1.342,0.168,2.018c0.019,0.134,0.022,0.267,0.022,0.4c0.055,0.53,0.092,1.058,0.113,1.567
		c0.376,6.689,0.111,13.363-0.738,19.881c-1.837,2.554-3.877,5.008-6.162,7.297c-2.049,2.046-4.276,3.818-6.546,5.485
		c-0.32,0.208-0.598,0.449-0.926,0.648c1.836-11.834,0.253-24.779-4.64-37.11c-0.266-0.642-0.53-1.285-0.793-1.908
		c-0.21-0.473-0.417-0.945-0.627-1.421c-0.073-0.151-0.13-0.318-0.206-0.469c-0.058-0.115-0.112-0.246-0.17-0.362
		c-0.226-0.489-0.452-0.942-0.682-1.415c-0.394-0.815-0.811-1.627-1.245-2.42c-0.022-0.04-0.04-0.076-0.058-0.115
		c-0.132-0.243-0.265-0.47-0.397-0.718c-0.452-0.833-0.908-1.642-1.396-2.437c-0.266-0.435-0.533-0.871-0.795-1.286
		c-0.359-0.568-0.719-1.116-1.076-1.664c-0.568-0.848-1.153-1.682-1.757-2.512c-0.022-0.04-0.059-0.096-0.097-0.132
		c-0.019-0.021-0.037-0.056-0.056-0.077c-0.567-0.774-1.135-1.513-1.739-2.25c-0.018-0.035-0.036-0.075-0.074-0.092
		c-0.625-0.796-1.266-1.569-1.928-2.326c-0.323-0.359-0.643-0.718-0.962-1.078c-0.324-0.359-0.644-0.698-0.965-1.038
		c-0.057-0.057-0.094-0.093-0.132-0.134c-0.343-0.36-0.682-0.719-1.042-1.056c-0.359-0.361-0.698-0.701-1.058-1.042
		c-0.057-0.057-0.113-0.114-0.17-0.151c-0.544-0.53-1.074-1.018-1.644-1.491c-0.038-0.041-0.057-0.057-0.091-0.078
		c-0.226-0.227-0.435-0.414-0.663-0.586c-0.058-0.037-0.114-0.094-0.172-0.131c-0.189-0.19-0.394-0.358-0.602-0.529
		c-0.452-0.379-0.908-0.755-1.38-1.115c-0.719-0.569-1.454-1.098-2.19-1.625c3.024-3.877,6.008-7.747,8.845-11.623
		c2.511-3.402,6.235-5.294,10.374-5.293c0.399,0.002,0.793,0.019,1.19,0.057c4.669,0.398,8.562,3.043,10.678,7.26
		C235.246,36.21,235.738,37.232,236.229,38.269z M200.187,49.153c4.987,3.478,9.506,7.904,13.379,13.062
		c3.646,4.818,6.726,10.319,9.109,16.274c5.234,13.17,6.384,27.024,3.283,39.122c-7.56,3.95-15.891,6.14-24.452,6.61
		c-8.357,0.454-14.971,7.087-15.423,15.424c-0.475,8.558-2.686,16.893-6.617,24.47c-12.115,3.078-25.966,1.946-39.142-3.307
		c-11.788-4.688-21.694-12.156-28.438-21.245l-0.002-1.946c15.48-12.454,30.905-26.366,46.06-41.521
		c11.19-11.166,21.678-22.506,31.414-33.883C193.081,57.867,196.693,53.518,200.187,49.153z M113.518,99.565
		c4.686-17.96,19.094-31.989,37.284-36.106c-4.064,4.326-8.241,8.655-12.55,12.945c-6.119,6.102-12.275,11.918-18.45,17.576
		C117.709,95.849,115.625,97.789,113.518,99.565z"/>
	<path class="st0" d="M189.425,75.801c-0.442-0.004-0.785,0.074-1.182,0.271c-0.087,0.044-0.149,0.112-0.229,0.168
		c-0.339,0.215-0.742,0.33-0.966,0.694c-0.793,1.305-0.376,3.023,0.929,3.819c3.985,2.418,7.254,6.5,9.238,11.47
		c1.987,4.99,2.403,10.207,1.174,14.706c-0.399,1.471,0.47,3.002,1.945,3.402c0.245,0.055,0.49,0.091,0.736,0.092
		c1.211,0.003,2.326-0.81,2.666-2.041c1.53-5.649,1.037-12.111-1.381-18.199c-2.418-6.084-6.498-11.113-11.489-14.156
		c-0.356-0.216-0.754-0.136-1.142-0.181c-0.074-0.01-0.142-0.064-0.221-0.066C189.477,75.779,189.457,75.797,189.425,75.801z"/>
	<path class="st0" d="M168.771,136.541c-0.79,0.215-1.622,0.314-2.45,0.43c-0.546,0.074-1.091,0.15-1.655,0.181
		c-3.423,0.193-7.057-0.392-10.577-1.785c-4.973-1.984-9.056-5.273-11.493-9.243c-0.195-0.327-0.56-0.41-0.846-0.624
		c-0.107-0.074-0.194-0.162-0.309-0.222c-0.369-0.197-0.685-0.31-1.103-0.324h-0.003c-0.008,0-0.016,0.007-0.024,0.007
		c-0.515-0.014-1.042-0.048-1.513,0.236c-1.306,0.795-1.722,2.496-0.926,3.802c3.061,5.008,8.09,9.089,14.173,11.51
		c3.742,1.491,7.656,2.25,11.416,2.248c2.322-0.001,4.61-0.281,6.765-0.87c1.473-0.414,2.342-1.927,1.948-3.399
		C171.776,137.013,170.262,136.143,168.771,136.541z"/>
	<path class="st0" d="M261.092,144.881c3.23,3.744,8.693,8.618,16.346,10.605c2.75,0.726,5.601,0.9,8.502,0.774
		c0.512,0.002,0.993,0.003,1.531,0.022c0.176,0.006,0.359,0.013,0.538,0.022c-3.278,3.314-7.551,6.717-9.608,8.306
		c-0.984,0.759-1.458,2.005-1.266,3.215c0.207,1.226,1.075,2.23,2.249,2.646c0.754,0.246,1.55,0.473,2.379,0.697
		c4.602,1.205,12.641,2.342,21.09-0.63c0.39-0.115,0.803-0.163,1.19-0.29c-3.147,4.279-6.726,8.586-8.463,10.656
		c-0.759,0.907-0.984,2.099-0.624,3.194c0.341,1.095,1.225,1.966,2.341,2.247l0.116,0.039l0.245,0.036
		c3.722,0.541,14.029,1.218,23.309-4.516c0.303-0.181,0.6-0.402,0.904-0.598c0.825-0.554,1.645-1.088,2.442-1.752
		c1.266-1.015,2.51-2.152,3.69-3.466c1.563,7.825,5.79,13.358,10.176,17.158c-1.758,2.002-3.611,4.802-5.52,8.43
		c-1.606,3-3.254,6.757-4.907,10.894c-0.545,1.258-1.066,2.413-1.637,3.769c-3.588-9.725-7.156-16.787-10.41-21.204
		c-5.934-8.048-10.846-7.387-13.21,1.664c-0.167,0.643-0.32,1.322-0.451,2.06c1.558,2.708,2.763,7.05,0.793,15.443
		c-0.313,1.228-0.694,2.535-1.166,3.946c0.036-0.01,0.063-0.014,0.099-0.024c-0.022,0.062-0.031,0.112-0.05,0.178
		c4.611-1.418,8.56-2.136,11.812-2.135c8.846,0,11.794,5.215,12.661,7.466c1.873,4.913,2.022,13.474-17.482,31.729l76.276,0.005
		c28.646-25.842,23.019-36.944-9.154-22.372c-1.469,0.637-2.864,1.202-4.434,1.928c8.248-16.89,10.217-27.495,7.186-30.904
		c-1.514-1.722-4.329-1.605-8.26,0.49c-3.934,2.09-9.045,6.266-15.056,12.426c-1.377,1.362-2.77,2.752-4.234,4.288
		c0.257-4.118,0.372-7.862,0.317-11.194c-0.058-3.81-0.339-7.075-0.762-9.85c-0.003-0.035-0.006-0.078-0.008-0.114
		c0.83-0.022,1.638-0.341,2.245-0.926c0.848-0.791,1.225-1.946,1.019-3.114c-0.41-2.145-1.143-6.204-1.763-10.49
		c-0.106-0.992-0.208-1.989-0.282-2.992c6.015,7.382,14.063,10.506,18.866,11.76c0.813,0.228,1.623,0.397,2.419,0.55
		c1.208,0.226,2.474-0.226,3.231-1.192c0.773-0.962,0.963-2.284,0.491-3.418c-0.831-1.937-2.322-5.608-3.521-9.32
		c-0.254-0.896-0.5-1.792-0.695-2.686c2.947,2.116,6.123,3.63,9.508,4.522c9.752,2.55,18.653-0.72,22.678-2.607
		c0.266-0.132,0.509-0.244,0.74-0.362c0.998-0.508,1.681-1.473,1.833-2.566c0.132-1.098-0.287-2.194-1.116-2.97
		c-0.36-0.321-0.853-0.753-1.454-1.321c-5.748-5.407-20.958-21.679-16.647-38.101l10.338-39.557c0.473-1.793,0.814-3.61,1.058-5.442
		c0.738-5.462,0.435-10.999-0.849-16.403c-0.584-2.534-1.398-5.067-2.435-7.503c-0.89-2.154-1.95-4.27-3.174-6.334
		c-6.484-10.866-16.82-18.634-29.087-21.83c-1.65-0.434-3.298-0.593-4.946-0.846c-0.159-0.025-0.314-0.058-0.47-0.079
		c-11.053-1.59-21.874,0.717-30.956,6.047c-0.024,0.014-0.052,0.026-0.076,0.04c-1.847,1.089-3.594,2.302-5.274,3.626
		c-0.116,0.09-0.229,0.184-0.342,0.274c-5.139,4.132-9.527,9.219-12.554,15.297c-1.416,2.816-2.553,5.821-3.382,8.978
		l-10.341,39.553c-3.82,14.57-20.886,21.506-30.072,24.245c-2.247,0.664-4.025,1.078-5.006,1.286
		c-1.118,0.246-2.005,1.001-2.439,2.022c-0.396,1.038-0.284,2.21,0.359,3.155C259.072,142.329,259.94,143.539,261.092,144.881z
		 M344.497,48.543c2.056,0.33,3.778,1.355,4.67,3.04c1.834,3.422-0.399,8.182-4.953,10.642c-3.665,1.963-7.71,1.868-10.131-0.002
		c-0.621-0.452-1.132-1.04-1.49-1.741c-1.835-3.418,0.398-8.162,4.971-10.618c2.283-1.234,4.717-1.653,6.813-1.353
		C344.42,48.521,344.454,48.537,344.497,48.543z M369.084,91.764c0.776,0.266,1.454,0.754,1.984,1.378
		c1.606,1.795,2.082,4.857,1.059,7.827c-1.418,4.003-5.049,6.346-8.127,5.289c-2.155-0.736-3.438-2.95-3.554-5.557
		c-0.057-1.17,0.116-2.419,0.531-3.667C362.394,93.05,366.021,90.687,369.084,91.764z M347.496,136.817l-17.348-4.538
		c-2.115-0.547-3.365-2.702-2.814-4.817l1.415-5.387c0.55-2.099,2.686-3.365,4.801-2.814l17.351,4.535
		c2.114,0.566,3.365,2.701,2.814,4.82l-1.416,5.387C351.75,136.117,349.615,137.364,347.496,136.817z M337.861,90.989
		c-0.546,3.119-2.456,5.526-4.72,6.334c-0.107,0.04-0.236,0.027-0.342,0.058c-0.679,0.191-1.374,0.3-2.082,0.182
		c-3.212-0.586-5.217-4.404-4.495-8.6c0.735-4.156,3.93-7.105,7.162-6.519C336.577,82.993,338.581,86.828,337.861,90.989z"/>
	<path class="st0" d="M263.539,323.987c-18.487-0.002-33.473,14.968-33.474,33.448c-0.002,18.483,14.984,33.473,33.467,33.474
		c18.484,0.001,33.47-14.984,33.47-33.468C297.005,338.958,282.019,323.988,263.539,323.987z M264.832,355.762
		c-0.733,0.392-1.492,0.757-2.3,1.072c-7.235,2.796-14.571,1.226-16.403-3.497c-1.104-2.861,0.08-6.2,2.762-9.022
		c0.199-0.212,0.406-0.415,0.624-0.619c1.034-0.976,2.242-1.879,3.618-2.652c0.155-0.093,0.314-0.177,0.478-0.261
		c0.733-0.393,1.496-0.757,2.309-1.073c7.219-2.796,14.571-1.226,16.387,3.497c1.104,2.849-0.079,6.192-2.754,9.014
		c-0.199,0.216-0.41,0.42-0.628,0.623c-1.031,0.976-2.235,1.88-3.606,2.657C265.158,355.589,264.995,355.677,264.832,355.762z"/>
	<path class="st0" d="M243.713,213.814c-6.515-17.554-12.878-26.184-17.494-26.185c-0.32,0-0.642,0.036-0.942,0.131
		c-0.853,0.247-1.646,0.814-2.326,1.701c-2.5,3.192-3.918,10.639-3.742,22.078c0.002,2.282,0.04,4.657,0.154,7.213
		c-7.782-8.625-14.205-14.071-18.939-16.496c-1.984-1.042-3.666-1.55-5.026-1.551c-2.514,0.002-3.934,1.738-4.122,5.105
		c-0.232,4.17,1.574,10.968,5.451,19.941c0.85,2.066,1.73,4.161,2.773,6.421c-11.682-5.724-20.29-8.354-25.497-8.353
		c-3.009-0.003-4.739,0.972-5.423,2.64c-0.005,0.012-0.012,0.015-0.017,0.027c-0.009,0.027-0.002,0.058-0.01,0.082
		c-1.554,4.19,3.968,13.053,17.752,25.506l77.429,0.002l37.494,0.002c13.69-12.35,19.228-21.165,17.793-25.394
		c-0.014-0.039-0.001-0.09-0.015-0.13c-0.007-0.019-0.022-0.032-0.034-0.052c-0.667-1.688-2.407-2.675-5.441-2.676
		c-4.221,0.002-10.774,1.832-19.286,5.529c-2.022,0.836-4.078,1.71-6.302,2.73c3.354-6.836,5.645-12.646,6.976-17.313
		c2.609-9.204,1.458-14.059-2.779-14.062c-2.267,0.002-5.423,1.401-9.355,4.289c-2.871,2.08-6.162,4.971-9.828,8.677
		c-1.094,1.107-2.269,2.383-3.43,3.641c-0.482,0.467-0.951,0.932-1.476,1.406c1.313-20.556-1.645-31.091-6.734-31.094
		c-3.99,0.002-9.295,6.492-14.862,19.606C245.54,209.297,244.624,211.47,243.713,213.814z"/>
	<polygon class="st0" points="397.932,262.041 397.934,261.978 397.93,261.978 397.932,261.818 120.197,261.801 118.861,261.801 
		118.861,261.801 118.701,261.799 118.699,275.029 396.453,275.048 397.77,275.05 397.77,275.046 397.93,275.049 	"/>
	<path class="st0" d="M294.231,300.459c-1.228,0.907-2.136,3.744-0.568,5.839c1.569,2.099,4.497,3.081,6.254,1.778
		c1.738-1.303,1.627-4.383,0.059-6.502C298.409,299.476,295.439,299.552,294.231,300.459z"/>
	<path class="st0" d="M324.277,339.564c-1.343-0.719-4.291-0.358-5.537,1.964c-1.25,2.306-0.888,5.37,1.018,6.406
		c1.926,1.021,4.669-0.376,5.918-2.682C326.922,342.947,325.6,340.282,324.277,339.564z"/>
	<path class="st0" d="M265.701,421.546c-1.338-0.719-4.27-0.361-5.516,1.945c-1.246,2.322-0.908,5.386,1.018,6.407
		c1.91,1.04,4.672-0.361,5.918-2.666C268.351,424.926,267.044,422.261,265.701,421.546z"/>
	<path class="st0" d="M200.07,387.201c-1.19,0.924-2.02,3.779-0.396,5.837c1.624,2.062,4.571,2.97,6.291,1.608
		c1.701-1.34,1.511-4.422-0.114-6.481C204.228,386.104,201.28,386.254,200.07,387.201z"/>
	<path class="st0" d="M315.012,395.957c-1.19,0.947-2.039,3.782-0.415,5.84c1.624,2.062,4.575,2.966,6.294,1.627
		c1.701-1.343,1.53-4.426-0.094-6.483C319.173,394.883,316.205,395.014,315.012,395.957z"/>
	<path class="st0" d="M214.384,300.533c-1.194,0.943-2.024,3.795-0.415,5.856c1.624,2.058,4.591,2.947,6.291,1.608
		c1.7-1.344,1.53-4.422-0.094-6.484C218.541,299.455,215.574,299.585,214.384,300.533z"/>
	<path class="st0" d="M188.092,338.649c-1.343-0.719-4.291-0.362-5.537,1.944c-1.249,2.31-0.91,5.37,1,6.41
		c1.91,1.04,4.666-0.341,5.935-2.646C190.736,342.051,189.433,339.387,188.092,338.649z"/>
</g>
</svg>
