<svg xmlns="http://www.w3.org/2000/svg" viewBox="0 0 24 24" fill="currentColor">
  <path fill-rule="evenodd" d="M3.375 3A2.625 2.625 0 0 0 .75 5.625v12.75A2.625 2.625 0 0 0 3.375 21h17.25a2.625 2.625 0 0 0 2.625-2.625V5.625A2.625 2.625 0 0 0 20.625 3H3.375ZM8.25 5.25v13.5H3.375a1.125 1.125 0 0 1-1.125-1.125V5.625c0-.621.504-1.125 1.125-1.125H8.25v.75Zm1.5 0v5.25h12v-4.875c0-.621-.504-1.125-1.125-1.125H9.75v.75Zm12 6.75h-12v6.75h10.875c.621 0 1.125-.504 1.125-1.125V12Z" clip-rule="evenodd" />
</svg>
