<?xml version="1.0" encoding="utf-8"?>
<!-- Generator: Adobe Illustrator 18.1.1, SVG Export Plug-In . SVG Version: 6.00 Build 0)  -->
<!DOCTYPE svg PUBLIC "-//W3C//DTD SVG 1.1//EN" "http://www.w3.org/Graphics/SVG/1.1/DTD/svg11.dtd">
<svg version="1.1" id="_x31_0" xmlns="http://www.w3.org/2000/svg" xmlns:xlink="http://www.w3.org/1999/xlink" x="0px" y="0px"
	 viewBox="0 0 512 512" style="enable-background:new 0 0 512 512;" xml:space="preserve">
<style type="text/css">
	.st0{fill:#374149;}
</style>
<g>
	<path class="st0" d="M490.661,274.527c-0.012-2.192-0.305-4.388-0.458-6.654c-6.213-33.295-38.817-54.083-67.428-67.275
		c-6.854-3.122-13.828-5.916-20.874-8.51c-1.731-0.672-3.505-1.395-5.205-2.032c0.008,0.031,0.008,0.062,0.016,0.094
		c-0.059-0.019-0.118-0.042-0.172-0.062c1.458,6.826,2.302,13.883,2.302,21.018c0,6.6-0.614,13.118-1.919,19.409
		c6.366,2.837,12.504,6.213,18.256,10.124l-0.074,0.078c10.89,7.287,23.394,19.408,21.171,33.905
		c-1.918,15.498-17.182,26.235-29.763,33.14c-12.887,7.135-27.079,12.121-41.193,16.11c-16.572,4.678-33.448,8.054-50.555,10.433
		c-13.962,1.993-28.075,3.22-42.19,3.912c-0.382,0-0.766,0-1.153,0.078c-31.682,1.532-63.668,0.458-95.12-3.915
		c-30.759-4.216-62.672-10.968-90.365-25.543c-13.578-7.21-30.838-18.717-31.912-35.746c-0.922-14.04,10.586-25.238,21.327-32.374
		l-0.078-0.078c25.391-17.259,57.073-25.774,88.446-30.451c1.152-9.975,5.599-19.408,12.89-26.696c0,0,3.22-3.223,7.995-7.998
		l6.286-6.111c-0.066,0.008-0.133,0.019-0.199,0.027c0.063-0.062,0.122-0.121,0.184-0.187
		c-38.278,3.758-75.868,12.042-110.77,26.004C47.504,208.268,7.23,230.209,0.251,267.873c-1.535,22.706,4.45,46.488,11.508,67.963
		c8.131,24.625,20.479,47.945,35.284,69.194c28.537,41.119,66.51,74.258,113.689,91.978c3.021,1.138,6.096,2.032,9.143,3.04
		c0.524,0.172,1.044,0.352,1.567,0.52c9.976,3.22,20.061,5.764,30.225,7.612c0.14,0.027,0.281,0.046,0.418,0.07
		c6.631,1.195,13.278,2.086,19.944,2.712c0.512,0.046,1.028,0.094,1.54,0.136c11.128,0.97,22.257,1.157,33.334,0.563
		c0.176-0.008,0.348-0.023,0.524-0.031c12.066-0.672,24.023-2.255,35.808-4.724c1.07-0.223,2.138-0.446,3.204-0.68
		c3.509-0.79,6.994-1.622,10.464-2.567c0.93-0.25,1.845-0.543,2.77-0.809c6.338-1.802,12.586-3.869,18.753-6.194
		c1.258-0.473,2.524-0.918,3.774-1.414c3.11-1.231,6.186-2.544,9.249-3.912c1.36-0.606,2.708-1.242,4.056-1.875
		c10.007-4.689,19.69-10.082,28.998-16.17c0.891-0.586,1.782-1.172,2.665-1.766c9.777-6.588,19.08-13.942,27.857-22.046
		c0.316-0.289,0.637-0.57,0.95-0.863c6.076-5.674,11.984-11.57,17.49-17.959c18.642-21.632,34.597-45.796,46.182-71.953
		c5.982-13.5,10.89-27.387,14.497-41.732c1.841-7.439,3.302-14.958,4.373-22.476c0.844-5.896,3.286-13.852,2.153-19.83
		C490.712,274.755,490.668,273.949,490.661,274.527z M98.556,410.954c-1.477-1.649-2.946-3.31-4.38-5.002
		c-12.122-14.497-22.839-30.893-31.874-49c2.266-2.211-0.062,0.058,2.77-2.626c6.522,3.911,13.27,7.287,20.253,10.354
		c3.298,1.458,6.674,2.837,10.124,4.142c2.684,0.996,10.202,2.149,11.89,4.681c13.196,21.632,29.533,41.115,47.714,58.683
		c6.439,6.221,13.234,12.062,20.253,17.65c0.996,0.798,1.997,1.586,2.993,2.349c1.88,1.45,3.666,3.009,5.596,4.396
		c4.911,3.528,10.742,6.365,15.497,10.124c2.454,1.918,4.142,8.058-1.227,6.752l-0.078-0.078c-0.074,0-0.227-0.074-0.305-0.074
		c-0.078,0-0.231-0.078-0.383-0.078c-0.078-0.078-0.156-0.078-0.23-0.078c-0.153-0.074-0.309-0.074-0.539-0.153
		c-0.383-0.078-0.766-0.23-1.149-0.305c-0.383-0.078-0.692-0.23-1.074-0.309c-36.794-10.511-68.397-31.538-93.702-58.999
		C99.978,412.587,99.275,411.767,98.556,410.954z"/>
	<path class="st0" d="M501.403,10.545C490.052-0.81,474.171-3.417,465.888,4.793L326.425,149.547
		c-4.22,4.216-10.507,5.674-16.107,3.681c-13.332-4.576-27.786-4.689-41.235-0.653c-0.082,0.023-0.168,0.047-0.25,0.07
		c-10.14,3.087-19.717,8.471-27.708,16.462c-0.23,0.23-0.383,0.457-0.614,0.691c-0.152,0.074-0.23,0.153-0.383,0.305l-42.654,42.65
		l-4.908,4.912c-3.067,3.067-4.525,7.287-4.373,11.351c0.231,4.45,2.376,8.745,6.518,11.586c2.38,1.61,5.142,2.454,7.827,2.532
		c0.996,0,1.997,0,2.915-0.234c0.23,0,0.461-0.074,0.613-0.074c2.915-0.613,5.678-2.07,7.902-4.294l3.911-3.915l5.064-4.907h0.078
		v0.074l3.146-3.142l15.571-15.575l14.114-14.114c4.314-4.247,10.804-5.377,16.006-2.778c0.16,0.082,0.312,0.176,0.469,0.262
		c0.641,0.352,1.27,0.739,1.86,1.212c5.216,4.146,6.443,11.277,3.606,16.802c-0.254,0.508-0.559,0.993-0.875,1.47
		c-0.137,0.199-0.278,0.39-0.418,0.574c-0.351,0.461-0.715,0.918-1.16,1.329l-11.125,11.124L249.33,241.83l-18.103,18.103
		c-1.762,2.606-2.685,5.599-2.685,8.593c0,4.064,1.61,8.127,4.912,11.121c5.982,5.369,15.189,4.834,20.862-0.844l34.674-34.671
		l7.058-7.061c4.247-4.248,10.73-5.377,15.93-2.774c0.16,0.078,0.309,0.172,0.465,0.258c0.641,0.352,1.27,0.738,1.86,1.215
		c3.99,3.146,5.678,7.975,4.99,12.578c-0.387,2.762-1.688,5.526-3.838,7.596l-41.962,42.037c-4.373,4.373-5.752,10.816-3.529,16.342
		c11.586-0.692,22.48-1.766,32.605-3.146l39.352-39.353c0.078-0.078,0.153-0.23,0.305-0.382c0.23-0.157,0.461-0.387,0.692-0.618
		c4.372-4.369,8.053-9.202,10.894-14.418c2.606-4.529,4.603-9.358,5.982-14.345c1.458-4.99,2.302-10.202,2.454-15.345
		c0.156-1.074,0.156-2.071,0.156-3.146c0-7.362-1.227-14.727-3.685-21.784c-1.918-5.678-0.535-11.969,3.759-16.263L507.158,46.06
		c3.22-3.219,4.834-7.67,4.834-12.578C511.992,25.964,508.307,17.45,501.403,10.545z"/>
</g>
</svg>
