<svg xmlns="http://www.w3.org/2000/svg" viewBox="0 0 24 24" fill="currentColor">
  <path d="M8.25 4.5a.75.75 0 0 1 .75.75v1.5a.75.75 0 0 1-1.5 0v-1.5a.75.75 0 0 1 .75-.75ZM12 4.5a.75.75 0 0 1 .75.75v1.5a.75.75 0 0 1-1.5 0v-1.5a.75.75 0 0 1 .75-.75ZM15.75 4.5a.75.75 0 0 1 .75.75v1.5a.75.75 0 0 1-1.5 0v-1.5a.75.75 0 0 1 .75-.75Z" />
  <path fill-rule="evenodd" d="M12 8.25a4.5 4.5 0 0 0-4.5 4.5H4.5a.75.75 0 0 0 0 1.5h.257a6.75 6.75 0 0 0 6.493 5.25h1.5a6.75 6.75 0 0 0 6.493-5.25H19.5a.75.75 0 0 0 0-1.5h-3a4.5 4.5 0 0 0-4.5-4.5Zm-3 4.5a3 3 0 1 1 6 0H9Z" clip-rule="evenodd" />
</svg>
